<?xml version="1.0" encoding="UTF-8"?>
<svg id="Layer_1" data-name="Layer 1" xmlns="http://www.w3.org/2000/svg" viewBox="0 0 986.39 1080">
  <defs>
    <style>
      .cls-1 {
        stroke-width: 5px;
      }

      .cls-1, .cls-2, .cls-3, .cls-4 {
        fill: none;
        stroke-miterlimit: 10;
      }

      .cls-1, .cls-3, .cls-4 {
        stroke: #e20a0a;
      }

      .cls-2 {
        stroke: #000;
      }

      .cls-3 {
        stroke-width: 4px;
      }

      .cls-5 {
        fill: #e20a0a;
      }
    </style>
  </defs>
  <rect class="cls-5" x="774.06" y="569.05" width=".99" height="106.49"/>
  <rect class="cls-5" x="762.76" y="567.4" width=".99" height="109.79"/>
  <rect class="cls-5" x="751.79" y="565.7" width=".99" height="113.18"/>
  <g>
    <polygon class="cls-3" points="745.72 247.87 745.72 580.84 558.9 533.48 377.88 580.84 191.06 533.48 10.02 580.84 10.02 247.87 191.06 200.5 377.88 247.87 558.9 200.5 745.72 247.87"/>
    <line class="cls-1" x1="562.01" y1="531.42" x2="562.01" y2="501.81"/>
    <line class="cls-1" x1="194.17" y1="531.42" x2="194.17" y2="472.21"/>
    <line class="cls-1" x1="558.9" y1="200.5" x2="558.9" y2="247.05"/>
    <line class="cls-1" x1="191.71" y1="204.68" x2="191.71" y2="263.81"/>
    <path class="cls-5" d="m273.68,386.24c.78,0,1.41.63,1.42,1.41.02,4.04.05,8.14.08,11.4.05,6.44,5.34,11.67,11.78,11.67h15.31s.01,14.66.01,14.66l-140.58-27.48c-2.76-.54-4.75-2.97-4.75-5.77,0-3.24,2.64-5.88,5.88-5.88h110.85m0-5.18h-110.85c-6.11,0-11.07,4.95-11.07,11.07,0,5.29,3.75,9.85,8.94,10.86l140.58,27.48c.34.07.67.1,1,.1,2.79,0,5.16-2.26,5.16-5.18v-14.68c0-2.86-2.32-5.17-5.17-5.17h-15.32c-3.62,0-6.57-2.91-6.6-6.53-.03-3.25-.06-7.34-.08-11.37-.02-3.63-2.96-6.57-6.6-6.57h0Z"/>
    <path class="cls-5" d="m590.32,386.24c3.24,0,5.88,2.64,5.88,5.88,0,2.81-2,5.24-4.75,5.77l-140.57,27.49v-14.67s15.32,0,15.32,0c6.44,0,11.73-5.23,11.78-11.67.03-3.26.06-7.36.08-11.4,0-.78.64-1.41,1.42-1.41h110.85m0-5.18h-110.85c-3.63,0-6.58,2.94-6.6,6.57-.02,4.03-.05,8.12-.08,11.38-.03,3.62-2.97,6.53-6.6,6.53h-15.33c-2.86,0-5.17,2.32-5.17,5.17v14.68c0,2.91,2.38,5.18,5.16,5.18.33,0,.67-.03,1-.1l140.58-27.48c5.2-1.02,8.94-5.57,8.94-10.86,0-6.11-4.95-11.07-11.07-11.07h0Z"/>
    <path class="cls-5" d="m286.59,363.85c0,1.91-1.55,3.48-3.46,3.48h-106.24v-6.94h106.24c1.92,0,3.46,1.55,3.46,3.46Z"/>
    <path class="cls-5" d="m166.85,360.39v6.94H60.61c-1.92,0-3.46-1.57-3.46-3.48s1.55-3.46,3.46-3.46h106.24Z"/>
    <path class="cls-5" d="m175.58,359.74v15.62h-7.42v-15.62c0-2.35,1.67-4.22,3.73-4.22s3.69,1.88,3.69,4.22Z"/>
    <path class="cls-5" d="m389.64,410.41v6.72h-24.44v-6.72h24.44m.26-3.46h-24.96c-1.77,0-3.2,1.43-3.2,3.2v7.24c0,1.77,1.43,3.2,3.2,3.2h24.96c1.77,0,3.2-1.43,3.2-3.2v-7.24c0-1.77-1.43-3.2-3.2-3.2h0Z"/>
    <path class="cls-5" d="m400.95,462.81h-47.06c-1.91,0-3.46-1.55-3.46-3.46v-33.36c0-1.9,1.55-3.46,3.46-3.46h47.06c1.91,0,3.46,1.55,3.46,3.46v33.36c0,1.91-1.55,3.46-3.46,3.46Zm-47.06-36.82v33.36s0,0,0,0h47.06v-33.36s-47.06,0-47.06,0Z"/>
    <path class="cls-5" d="m452.11,470.79c-1.43,0-2.59-1.16-2.59-2.59v-13.3c0-11.43-5.91-17.19-16.13-23.28l-30.14-17.97c-1.23-.73-1.63-2.32-.9-3.55.73-1.23,2.32-1.63,3.55-.9l30.14,17.97c11.2,6.68,18.66,13.95,18.66,27.73v13.3c0,1.43-1.16,2.59-2.59,2.59Z"/>
    <path class="cls-5" d="m302.72,470.79c-1.43,0-2.59-1.16-2.59-2.59v-13.3c0-13.78,7.46-21.05,18.66-27.73l30.14-17.97c1.23-.73,2.82-.33,3.55.9.73,1.23.33,2.82-.9,3.55l-30.14,17.97c-10.22,6.09-16.13,11.85-16.13,23.28v13.3c0,1.43-1.16,2.59-2.59,2.59Z"/>
    <rect class="cls-5" x="163.14" y="375.51" width="17.45" height="3.4"/>
    <path class="cls-5" d="m698.6,363.85c0,1.91-1.55,3.48-3.46,3.48h-106.24v-6.94h106.24c1.92,0,3.46,1.55,3.46,3.46Z"/>
    <path class="cls-5" d="m578.86,360.39v6.94h-106.24c-1.92,0-3.46-1.57-3.46-3.48s1.55-3.46,3.46-3.46h106.24Z"/>
    <path class="cls-5" d="m587.59,359.74v15.62h-7.42v-15.62c0-2.35,1.67-4.22,3.73-4.22s3.69,1.88,3.69,4.22Z"/>
    <rect class="cls-5" x="575.15" y="375.51" width="17.45" height="3.4"/>
    <path class="cls-5" d="m377.4,345.59c20.81,0,40.81,4.91,57.82,14.21,16.38,8.95,28.91,21.31,36.23,35.74,1.37,2.71.27,5.05-.27,5.93-.56.92-2.22,3.05-5.42,3.05h-176.69c-3.2,0-4.86-2.13-5.42-3.05-.54-.88-1.65-3.22-.27-5.93,7.32-14.43,19.84-26.79,36.22-35.74,17.01-9.29,37-14.21,57.8-14.21m0-6.91c-45.36,0-84.22,22.23-100.19,53.73-4.42,8.71,2.09,19.01,11.86,19.01h176.69c9.77,0,16.27-10.3,11.86-19.01-15.97-31.49-54.83-53.73-100.22-53.73h0Z"/>
    <path class="cls-5" d="m342.14,332.23c-.66,0-1.28-.38-1.57-1.01-.39-.87,0-1.89.86-2.29,10.81-4.9,23.25-7.49,35.99-7.49s25.19,2.59,36,7.49c.87.39,1.25,1.42.86,2.29-.39.87-1.42,1.26-2.29.86-10.36-4.7-22.31-7.18-34.57-7.18s-24.2,2.49-34.56,7.18c-.23.11-.47.16-.71.16Z"/>
    <path class="cls-5" d="m412.69,321.4c-.24,0-.48-.05-.71-.16-10.36-4.7-22.31-7.19-34.57-7.19s-24.2,2.49-34.56,7.19c-.87.4-1.89.01-2.29-.86-.39-.87,0-1.89.86-2.29,10.8-4.9,23.25-7.5,35.99-7.5s25.19,2.59,36,7.5c.87.39,1.25,1.42.86,2.29-.29.64-.92,1.01-1.57,1.01Z"/>
    <path class="cls-5" d="m412.69,310.56c-.24,0-.48-.05-.71-.16-10.35-4.7-22.31-7.18-34.57-7.18s-24.2,2.49-34.56,7.18c-.87.4-1.89.01-2.29-.86-.39-.87,0-1.89.86-2.29,10.8-4.9,23.24-7.49,35.99-7.49s25.2,2.59,36,7.49c.87.39,1.25,1.42.86,2.29-.29.64-.92,1.01-1.57,1.01Z"/>
    <path class="cls-5" d="m445.7,390.95h-137.56c-1.43,0-2.59-1.16-2.59-2.59s1.16-2.59,2.59-2.59h137.56c1.43,0,2.59,1.16,2.59,2.59s-1.16,2.59-2.59,2.59Z"/>
    <path class="cls-5" d="m377.42,431.59c5.74,0,10.42,4.67,10.42,10.42s-4.67,10.42-10.42,10.42-10.42-4.67-10.42-10.42,4.67-10.42,10.42-10.42m0-3.46c-7.66,0-13.87,6.21-13.87,13.87s6.21,13.87,13.87,13.87,13.87-6.21,13.87-13.87-6.21-13.87-13.87-13.87h0Z"/>
    <path class="cls-5" d="m452.16,480.71c-1.81,0-3.28-1.47-3.28-3.28s1.47-3.28,3.28-3.28,3.28,1.47,3.28,3.28-1.47,3.28-3.28,3.28Zm0-4.84c-.86,0-1.55.7-1.55,1.56s.7,1.55,1.55,1.55,1.55-.7,1.55-1.55-.7-1.56-1.55-1.56Z"/>
    <path class="cls-5" d="m302.72,480.71c-1.81,0-3.28-1.47-3.28-3.28s1.47-3.28,3.28-3.28,3.28,1.47,3.28,3.28-1.47,3.28-3.28,3.28Zm0-4.84c-.86,0-1.55.7-1.55,1.56s.7,1.55,1.55,1.55,1.55-.7,1.55-1.55-.7-1.56-1.55-1.56Z"/>
    <path class="cls-5" d="m119.11,769.14v-220.03l72.42-18.94.86.22,185.96,47.14,181.02-47.36.86.22,182.52,46.27v-177.81l118.96,30.16v340.09l-190.27-48.23-181.02,47.36-.86-.22-185.95-47.14-184.51,48.27Zm184.48-55.4l.86.22,185.95,47.14,181.02-47.36.86.22,182.52,46.27v-325.83l-105.14-26.65v177.81l-190.27-48.23-181.02,47.36-10.52-2.67-176.3-44.68-65.53,17.14v205.74l177.57-46.45Z"/>
    <path class="cls-5" d="m549.99,581.36c13.34,0,13.36-20.73,0-20.73s-13.36,20.73,0,20.73h0Z"/>
    <path class="cls-5" d="m524,613.72c13.34,0,13.36-20.73,0-20.73s-13.36,20.73,0,20.73h0Z"/>
    <path class="cls-5" d="m380.8,637.58c13.34,0,13.36-20.73,0-20.73s-13.36,20.73,0,20.73h0Z"/>
    <path class="cls-5" d="m476.27,575.53c13.34,0,13.36-20.73,0-20.73s-13.36,20.73,0,20.73h0Z"/>
    <path class="cls-5" d="m399.89,694.34c13.34,0,13.36-20.73,0-20.73s-13.36,20.73,0,20.73h0Z"/>
    <path class="cls-5" d="m408.91,733.05c13.34,0,13.36-20.73,0-20.73s-13.36,20.73,0,20.73h0Z"/>
    <path class="cls-5" d="m650.23,610.54c13.34,0,13.36-20.73,0-20.73s-13.36,20.73,0,20.73h0Z"/>
    <path class="cls-5" d="m425.35,593.56c13.34,0,13.36-20.73,0-20.73s-13.36,20.73,0,20.73h0Z"/>
    <path class="cls-5" d="m483.16,706.41c20.01,0,20.04-31.1,0-31.1s-20.04,31.1,0,31.1h0Z"/>
    <path class="cls-5" d="m606.74,686.26c20.01,0,20.04-31.1,0-31.1s-20.04,31.1,0,31.1h0Z"/>
    <path class="cls-5" d="m432.77,660.85c17.34,0,17.37-26.95,0-26.95s-17.37,26.95,0,26.95h0Z"/>
    <path class="cls-5" d="m482.63,657.67c17.34,0,17.37-26.95,0-26.95s-17.37,26.95,0,26.95h0Z"/>
    <path class="cls-5" d="m566.43,674.11c17.34,0,17.37-26.95,0-26.95s-17.37,26.95,0,26.95h0Z"/>
    <path class="cls-5" d="m352.69,680.47c17.34,0,17.37-26.95,0-26.95s-17.37,26.95,0,26.95h0Z"/>
    <polygon class="cls-5" points="607.14 671.7 565.92 661.4 565.74 661.15 523.37 603.95 476.11 566.15 430.01 583.56 483.28 643.62 481.98 644.76 427.05 582.83 476.42 564.18 524.69 602.84 566.94 659.87 606.34 669.72 648.9 600.68 549.75 571.83 550.23 570.17 651.56 599.66 607.14 671.7"/>
    <polygon class="cls-5" points="408.25 723.91 401.25 684.62 352.41 667.81 352.97 666.18 402.77 683.32 409.57 721.46 482.82 690.07 483.5 691.66 408.25 723.91"/>
    <rect class="cls-5" x="379.93" y="655.28" width="1.73" height="79.13" transform="translate(-380.84 476.39) rotate(-45.27)"/>
    <path class="cls-5" d="m778.05,647.95c26.68,0,26.73-41.47,0-41.47s-26.73,41.47,0,41.47h0Z"/>
    <rect class="cls-5" x="714.54" y="546.29" width="3.46" height="134.81" transform="translate(-28.67 1192.25) rotate(-78.42)"/>
    <path class="cls-5" d="m252.97,620.08c13.34,0,13.36-20.73,0-20.73s-13.36,20.73,0,20.73h0Z"/>
    <polygon class="cls-5" points="251.48 611.21 273.12 554.32 274.74 554.94 254.47 608.22 347.79 572.63 348.41 574.24 251.48 611.21"/>
    <path class="cls-5" d="m483.28,691.74l-.19-.02-84.53-7.18,2.36-1.04-20.79-55.62-.09-.04-.07-.4-.34-.91.17-.03-7.96-45.25,1.7-.3,7.96,45.27,142.36-23.73,129.14-3.26-86.28,62.21-83.45,30.3Zm-77.81-8.35l77.58,6.59,82.98-30.13,81.44-58.76-123.44,3.11-139.97,23.34,48.89,18.96h56.59l-84.06,36.89Zm-23.19-54.68l20.22,54.09,78.79-34.57-48.83-.06-50.18-19.46Z"/>
    <polygon class="cls-5" points="957.38 599.87 957 601.54 953.77 600.82 937.32 597.16 935.6 596.78 917.8 592.8 916.09 592.42 898.85 588.59 897.14 588.19 880.47 584.47 878.75 584.09 862.59 580.5 860.88 580.12 860.88 578.34 862.59 578.72 878.75 582.33 880.47 582.71 897.14 586.43 898.85 586.81 916.09 590.66 917.8 591.04 935.6 595.01 937.32 595.39 953.77 599.06 957.38 599.87"/>
    <polygon class="cls-5" points="957.38 621.97 957 623.64 953.77 622.92 937.32 619.25 935.6 618.87 917.8 614.9 916.09 614.52 898.85 610.68 897.14 610.29 880.47 606.57 878.75 606.19 862.59 602.6 860.88 602.22 860.88 600.44 862.59 600.82 878.75 604.43 880.47 604.81 897.14 608.52 898.85 608.91 916.09 612.76 917.8 613.14 935.6 617.11 937.32 617.49 953.77 621.15 957.38 621.97"/>
    <polygon class="cls-5" points="957.38 644.07 957 645.74 953.77 645.02 937.32 641.35 935.6 640.97 917.8 637 916.09 636.62 898.85 632.78 897.14 632.39 880.47 628.67 878.75 628.29 862.59 624.7 860.88 624.32 860.88 622.54 862.59 622.92 878.75 626.53 880.47 626.91 897.14 630.62 898.85 631 916.09 634.86 917.8 635.24 935.6 639.21 937.32 639.59 953.77 643.25 957.38 644.07"/>
    <polygon class="cls-5" points="957.38 666.16 957 667.84 953.77 667.11 937.32 663.45 935.6 663.07 917.8 659.1 916.09 658.72 898.85 654.88 897.14 654.48 880.47 650.77 878.75 650.39 862.59 646.8 860.88 646.42 860.88 644.64 862.59 645.02 878.75 648.63 880.47 649.01 897.14 652.72 898.85 653.1 916.09 656.96 917.8 657.34 935.6 661.31 937.32 661.69 953.77 665.35 957.38 666.16"/>
    <polygon class="cls-5" points="957.38 688.26 957 689.94 953.77 689.21 937.32 685.55 935.6 685.17 917.8 681.2 916.09 680.82 898.85 676.98 897.14 676.58 880.47 672.87 878.75 672.49 862.59 668.89 860.88 668.51 860.88 666.73 862.59 667.11 878.75 670.73 880.47 671.11 897.14 674.82 898.85 675.2 916.09 679.05 917.8 679.43 935.6 683.41 937.32 683.79 953.77 687.45 957.38 688.26"/>
    <polygon class="cls-5" points="957.38 710.36 957 712.04 953.77 711.31 937.32 707.65 935.6 707.27 917.8 703.29 916.09 702.91 898.85 699.08 897.14 698.68 880.47 694.97 878.75 694.59 862.59 690.99 860.88 690.61 860.88 688.83 862.59 689.21 878.75 692.82 880.47 693.2 897.14 696.92 898.85 697.3 916.09 701.15 917.8 701.53 935.6 705.51 937.32 705.89 953.77 709.55 957.38 710.36"/>
    <g>
      <polygon class="cls-5" points="366.6 731.56 364.89 731.96 354.8 734.27 351.22 735.1 349.53 735.5 335.85 738.64 334.16 739.03 320.48 742.17 318.79 742.57 305.11 745.71 303.41 746.11 289.73 749.25 288.02 749.65 274.36 752.8 272.65 753.18 262.62 755.49 259.38 756.23 259.01 754.56 262.62 753.73 272.63 751.43 274.33 751.03 288.01 747.89 289.72 747.49 303.38 744.35 305.09 743.95 318.75 740.8 320.46 740.41 334.12 737.26 335.84 736.87 349.5 733.72 351.09 733.36 351.21 733.32 364.87 730.18 366.58 729.8 366.6 731.56"/>
      <polygon class="cls-5" points="711.73 732.46 666.04 742.98 664.33 743.36 650.17 746.63 648.46 747.02 634.76 750.17 633.05 750.57 608.21 756.29 608.02 756.23 574.86 748.84 578.51 747.89 608.19 754.51 633.05 748.79 634.76 748.39 648.46 745.25 650.17 744.85 664.33 741.58 666.04 741.19 708.01 731.53 711.73 732.46"/>
      <polygon class="cls-5" points="957.38 754.56 957 756.23 953.77 755.51 937.32 751.85 935.6 751.47 917.8 747.49 916.09 747.11 898.85 743.28 897.14 742.88 880.47 739.16 878.75 738.78 862.59 735.19 860.88 734.81 860.88 733.03 862.59 733.41 878.75 737.02 880.47 737.4 897.14 741.12 898.85 741.5 916.09 745.35 917.8 745.73 935.6 749.7 937.32 750.08 953.77 753.75 957.38 754.56"/>
    </g>
    <polygon class="cls-5" points="957.38 820.85 957 822.53 953.77 821.8 812.08 790.22 810.36 789.84 779.95 783.05 608.21 822.58 608.02 822.53 430.96 783.05 398.3 790.57 396.59 790.96 382.91 794.11 381.2 794.5 367.51 797.65 365.81 798.05 352.12 801.19 350.4 801.59 336.73 804.73 335.01 805.13 321.32 808.28 319.62 808.67 305.93 811.82 304.22 812.21 290.52 815.36 288.81 815.76 275.12 818.9 273.4 819.3 262.62 821.79 259.71 822.46 259.38 822.53 259.01 820.85 259.69 820.7 262.62 820.02 273.39 817.54 275.1 817.16 288.79 813.99 290.51 813.6 304.2 810.45 305.89 810.05 319.59 806.91 321.3 806.51 335 803.37 335 803.35 336.69 802.97 350.39 799.81 352.1 799.43 365.78 796.27 367.49 795.89 381.17 792.73 382.88 792.33 396.57 789.18 398.27 788.79 430.95 781.27 431.14 781.32 608.19 820.8 779.95 781.27 780.13 781.32 810.36 788.06 812.08 788.44 953.77 820.04 957.38 820.85"/>
    <path class="cls-5" d="m860.88,549.56v7.08l92.89,20.72v270.87l-173.09-38.62-.75-.16-171.73,39.53-160.15-35.73-1.71-.38-13.69-3.06-.94-.21-.75-.16h-.02l-32.25,7.43-1.7.38-13.69,3.16-1.71.4-13.69,3.14-1.71.4-13.69,3.14-1.71.4-13.69,3.14-1.71.4-13.69,3.16-1.71.38-13.69,3.16-1.71.4-13.71,3.14-1.7.4-13.71,3.14-1.71.4-11.09,2.56v-112.86l-3.87,1.02-1.71.45-1.27.33v119.74l175.16-40.33h.03l1.68.38,174.82,38.98.75.17,171.75-39.53,180.65,40.29v-285.02l-99.73-22.25Zm-601.87,182.9l.38,1.68,3.24-.74v-1.76l-3.61.83Z"/>
    <g>
      <polygon class="cls-5" points="398.71 818.78 397 818.8 396.98 817.26 396.59 790.96 396.57 789.18 395.94 746.9 395.92 745.14 395.9 744.49 397.29 744.83 397.62 744.74 397.62 744.92 397.65 746.52 398.27 788.79 398.3 790.57 398.68 816.88 398.71 818.78"/>
      <polygon class="cls-5" points="383.31 822.08 381.59 822.11 381.58 820.82 381.2 794.5 381.17 792.73 380.57 750.45 380.55 748.68 380.43 740.65 382.14 741.06 382.24 748.29 382.28 750.05 382.88 792.33 382.91 794.11 383.29 820.42 383.31 822.08"/>
      <polygon class="cls-5" points="367.9 825.5 366.19 825.52 366.17 824.36 365.81 798.05 365.78 796.27 365.19 753.99 365.18 752.21 364.95 736.8 364.89 731.96 364.87 730.18 366.58 729.8 366.6 731.56 366.68 737.23 366.87 751.83 366.91 753.59 367.49 795.89 367.51 797.65 367.88 823.96 367.9 825.5"/>
      <polygon class="cls-5" points="352.49 829.01 350.78 829.04 350.76 827.9 350.4 801.59 350.39 799.81 349.82 757.53 349.79 755.75 349.53 735.5 349.5 733.72 349.5 732.96 351.09 733.36 351.21 733.32 351.21 733.39 351.22 735.1 351.5 755.37 351.53 757.13 352.1 799.43 352.12 801.19 352.47 827.51 352.49 829.01"/>
      <polygon class="cls-5" points="337.09 832.64 335.37 832.65 335.36 831.44 335.01 805.13 335 803.37 335 803.35 334.43 761.05 334.41 759.29 334.16 739.03 334.12 737.26 334.02 729.13 335.75 729.56 335.84 736.87 335.85 738.64 336.13 758.9 336.14 760.67 336.69 802.97 336.73 804.73 337.07 831.05 337.09 832.64"/>
      <polygon class="cls-5" points="321.68 836.37 319.97 836.39 319.95 834.99 319.62 808.67 319.59 806.91 319.06 764.6 319.04 762.83 318.79 742.57 318.75 740.8 318.56 725.29 318.49 720.54 318.48 718.78 320.19 718.38 320.21 720.14 320.27 725.72 320.46 740.41 320.48 742.17 320.74 762.44 320.77 764.22 321.3 806.51 321.32 808.28 321.66 834.61 321.68 836.37"/>
      <polygon class="cls-5" points="306.27 840.22 304.56 840.24 304.54 838.55 304.22 812.21 304.2 810.45 303.67 768.14 303.65 766.38 303.41 746.11 303.38 744.35 303.14 724.62 303.14 724.06 303.1 722.3 304.82 721.92 304.83 723.68 304.85 724.17 305.09 743.95 305.11 745.71 305.36 765.98 305.38 767.74 305.89 810.05 305.93 811.82 306.25 838.15 306.27 840.22"/>
      <polygon class="cls-5" points="290.86 844.2 289.15 844.21 289.14 842.09 288.81 815.76 288.79 813.99 288.3 771.68 288.26 769.92 288.02 749.65 288.01 747.89 287.78 728.68 287.77 727.6 287.75 725.84 289.44 725.44 289.48 727.21 289.48 728.23 289.72 747.49 289.73 749.25 289.97 769.52 289.99 771.28 290.51 813.6 290.52 815.36 290.83 841.69 290.86 844.2"/>
      <polygon class="cls-5" points="275.46 848.29 273.75 848.31 273.71 845.63 273.4 819.3 273.39 817.54 272.91 775.22 272.89 773.46 272.65 753.18 272.63 751.43 272.41 732.74 272.39 731.15 272.38 729.38 274.09 728.99 274.11 730.75 274.12 732.29 274.33 751.03 274.36 752.8 274.58 773.06 274.6 774.83 275.1 817.16 275.12 818.9 275.42 845.23 275.46 848.29"/>
      <polygon class="cls-5" points="260.05 852.51 258.34 852.52 257.04 736.8 258.75 736.35 259.2 776.6 259.21 777.57 259.69 820.7 259.71 822.46 260.05 852.51"/>
    </g>
    <rect class="cls-5" x="878.75" y="581.38" width="1.71" height="201.6"/>
    <rect class="cls-5" x="860.88" y="578.27" width="1.71" height="207.84"/>
    <polygon class="cls-5" points="845.25 765.74 845.25 789.32 843.54 789.32 843.54 765.31 845.25 765.74"/>
    <line class="cls-4" x1="828.43" y1="792.64" x2="826.71" y2="792.64"/>
    <g>
      <polygon class="cls-4" points="953.77 821.8 953.77 848.22 780.68 809.61 779.93 809.45 608.19 848.98 448.05 813.25 446.34 812.87 432.64 809.81 431.7 809.61 430.95 809.45 430.93 809.45 398.68 816.88 398.3 790.57 430.96 783.05 608.02 822.53 608.21 822.58 779.95 783.05 810.36 789.84 810.36 796.04 812.08 796.04 812.08 790.22 953.77 821.8"/>
      <polygon class="cls-5" points="812.08 757.46 812.08 796.04 810.36 796.04 810.36 757.03 812.08 757.46"/>
    </g>
    <g>
      <polygon class="cls-5" points="666.04 725 666.04 787.42 664.33 787.42 664.33 725.43 666.04 725"/>
      <polygon class="cls-5" points="650.17 729.11 650.17 790.1 648.46 790.1 648.46 729.54 650.17 729.11"/>
      <g>
        <line class="cls-4" x1="634.76" y1="726.29" x2="633.05" y2="726.69"/>
        <polygon class="cls-5" points="634.76 733.19 634.76 792.85 633.05 792.85 633.05 733.63 634.76 733.19"/>
      </g>
    </g>
    <polygon class="cls-2" points="397.62 744.74 397.62 744.9 397.27 744.83 397.62 744.74"/>
    <line class="cls-2" x1="634.76" y1="726.29" x2="633.05" y2="726.69"/>
    <polyline class="cls-2" points="666.04 725 666.04 725.01 664.33 725.46 650.17 729.16 648.46 729.61 634.76 733.19"/>
    <polyline class="cls-2" points="634.76 733.08 648.46 729.54 650.17 729.11 664.33 725.43"/>
    <polygon class="cls-4" points="953.77 577.36 953.77 599.06 937.32 595.39 937.32 590.19 935.6 590.19 935.6 595.01 917.8 591.04 917.8 587.34 916.09 587.34 916.09 590.66 898.85 586.81 898.85 584.4 897.14 584.4 897.14 586.43 880.47 582.71 880.47 581.38 878.75 581.38 878.75 582.33 862.59 578.72 862.59 578.27 860.88 578.27 860.88 556.64 953.77 577.36"/>
    <polygon class="cls-4" points="953.77 755.51 953.77 820.04 812.08 788.44 812.08 757.46 826.71 761.11 828.43 761.54 843.54 765.31 843.54 789.32 845.25 789.32 845.25 765.74 860.88 769.62 860.88 786.11 862.59 786.11 862.59 735.19 878.75 738.78 878.75 782.98 880.47 782.98 880.47 739.16 897.14 742.88 897.14 779.96 898.85 779.96 898.85 743.28 916.09 747.11 916.09 777.04 917.8 777.04 917.8 747.49 935.6 751.47 935.6 774.19 937.32 774.19 937.32 751.85 953.77 755.51"/>
    <polyline class="cls-4" points="860.88 578.27 860.88 578.34 860.88 580.12 860.88 600.44 860.88 602.22 860.88 622.54 860.88 624.32 860.88 644.64 860.88 646.42 860.88 666.73 860.88 668.51 860.88 688.83 860.88 690.61 860.88 733.03 860.88 734.81 860.88 769.62"/>
    <line class="cls-4" x1="845.25" y1="765.74" x2="843.54" y2="765.31"/>
    <polygon class="cls-4" points="810.36 757.03 810.36 788.06 780.13 781.32 779.95 781.27 608.19 820.8 431.14 781.32 430.95 781.27 398.27 788.79 397.65 746.52 397.62 744.92 495.4 769.18 634.76 733.08 634.76 733.19 633.05 733.63 633.05 748.79 608.19 754.51 578.51 747.89 574.86 748.84 608.02 756.23 608.21 756.29 633.05 750.57 633.05 792.85 634.76 792.85 634.76 750.17 648.46 747.02 648.46 790.1 650.17 790.1 650.17 746.63 664.33 743.36 664.33 787.42 666.04 787.42 666.04 742.98 711.73 732.46 779.09 749.24 780.8 749.67 794.5 753.07 796.21 753.5 810.36 757.03"/>
    <polyline class="cls-4" points="397.62 744.92 397.62 744.9 397.29 744.83 395.9 744.49 382.14 741.06 380.43 740.65 366.68 737.23 364.95 736.8 354.8 734.27 354.79 734.27 351.21 733.39 351.09 733.36 349.5 732.96 335.75 729.56 334.02 729.13 320.27 725.72 318.56 725.29 309.3 722.99 304.85 724.17 303.14 724.62 289.48 728.23 287.78 728.68 274.12 732.29 272.41 732.74 262.62 735.33 258.75 736.35 257.04 736.8 255.77 737.12"/>
    <polyline class="cls-4" points="634.76 733.08 648.46 729.54 650.17 729.11 664.33 725.43 666.04 725 673.76 722.99 708.01 731.53 711.73 732.46"/>
    <line class="cls-4" x1="812.08" y1="757.46" x2="810.36" y2="757.03"/>
    <line class="cls-4" x1="860.88" y1="556.64" x2="860.88" y2="549.56"/>
    <path class="cls-5" d="m861.43,508.47l-6.85-1.75v7.12l6.85,1.75,108.09,27.52v327.49l-182.6-46.51-.86-.22-181.05,47.6-186.01-47.38-.86-.22-177.64,46.7v-140.18l-6.85,1.81v147.29l184.52-48.5,186.01,47.38.84.22,181.06-47.6,190.27,48.47v-341.72l-114.93-29.27Z"/>
    <path class="cls-5" d="m854.58,506.73v253.92l-182.59-46.51-.86-.22-181.06,47.6-186.01-47.38-.84-.22-62.72,16.48-6.85,1.81v7.14l6.85-1.8,62.74-16.5,186.01,47.39.86.21,181.05-47.6,190.27,48.46v-261.04l-6.85-1.75Z"/>
  </g>
</svg>